<?xml version="1.0" encoding="iso-8859-1"?>
<!-- Uploaded to: SVG Repo, www.svgrepo.com, Generator: SVG Repo Mixer Tools -->
<!DOCTYPE svg PUBLIC "-//W3C//DTD SVG 1.1//EN" "http://www.w3.org/Graphics/SVG/1.1/DTD/svg11.dtd">
<svg fill="#000000" version="1.1" id="Capa_1" xmlns="http://www.w3.org/2000/svg" xmlns:xlink="http://www.w3.org/1999/xlink" 
	 width="800px" height="800px" viewBox="0 0 576.556 576.557"
	 xml:space="preserve">
<g>
	<g>
		<g>
			<path d="M15.717,301.571l229.606,251.714c10.99,12.049,26.646,18.959,42.955,18.959c16.307,0,31.963-6.91,42.954-18.958
				l229.607-251.715c7.975-8.742,13.045-19.497,14.662-31.102c1.492-10.703-0.039-21.614-4.427-31.556
				c-4.389-9.942-11.419-18.427-20.331-24.537c-9.663-6.625-21.025-10.127-32.858-10.127h-52.384V62.452
				c0-32.058-26.082-58.14-58.14-58.14H169.195c-32.059,0-58.14,26.082-58.14,58.14V204.25H58.671
				c-11.833,0-23.196,3.502-32.859,10.127c-8.913,6.11-15.943,14.595-20.332,24.538c-4.388,9.942-5.918,20.854-4.426,31.557
				C2.673,282.075,7.743,292.829,15.717,301.571z M58.671,247.09h79.923c8.45,0,15.3-6.85,15.3-15.3V62.452
				c0-8.45,6.85-15.3,15.3-15.3h238.167c8.449,0,15.3,6.85,15.3,15.3V231.79c0,8.45,6.85,15.3,15.3,15.3h79.924
				c13.295,0,20.263,15.788,11.304,25.611L299.582,524.415c-3.034,3.326-7.169,4.989-11.303,4.989c-4.135,0-8.27-1.663-11.304-4.989
				L47.368,272.701C38.408,262.878,45.376,247.09,58.671,247.09z"/>
			<path d="M288.278,572.744c-16.448,0-32.239-6.97-43.324-19.122L15.348,301.908C7.305,293.091,2.191,282.244,0.56,270.54
				c-1.505-10.794,0.039-21.799,4.464-31.827c4.426-10.027,11.517-18.585,20.506-24.749c9.747-6.682,21.207-10.214,33.142-10.214
				h51.883V62.452c0-32.334,26.306-58.64,58.64-58.64h238.167c32.334,0,58.64,26.306,58.64,58.64V203.75h51.884
				c11.935,0,23.395,3.532,33.141,10.214c8.989,6.163,16.08,14.721,20.506,24.748s5.97,21.033,4.465,31.827
				c-1.631,11.705-6.745,22.552-14.788,31.369L331.601,553.623C320.516,565.774,304.726,572.744,288.278,572.744z M58.671,204.75
				c-11.732,0-22.997,3.472-32.576,10.04c-8.836,6.058-15.806,14.47-20.157,24.327c-4.351,9.858-5.868,20.676-4.389,31.286
				c1.604,11.504,6.631,22.165,14.537,30.833l229.606,251.714c10.896,11.945,26.417,18.796,42.585,18.796
				c16.167,0,31.688-6.851,42.584-18.795L560.47,301.234c7.906-8.668,12.933-19.33,14.536-30.833
				c1.479-10.61-0.039-21.428-4.389-31.286c-4.352-9.857-11.321-18.269-20.157-24.326c-9.579-6.568-20.844-10.04-32.575-10.04
				h-52.884V62.452c0-31.783-25.857-57.64-57.64-57.64H169.195c-31.783,0-57.64,25.857-57.64,57.64V204.75H58.671z M288.278,529.904
				c-4.432,0-8.687-1.878-11.673-5.152L46.998,273.038c-4.28-4.693-5.346-11.217-2.782-17.028s8.104-9.42,14.455-9.42h79.923
				c8.161,0,14.8-6.639,14.8-14.8V62.452c0-8.712,7.088-15.8,15.8-15.8h238.167c8.712,0,15.8,7.088,15.8,15.8V231.79
				c0,8.161,6.639,14.8,14.8,14.8h79.924c6.352,0,11.89,3.609,14.454,9.419c2.564,5.811,1.499,12.335-2.781,17.028L299.951,524.752
				C296.964,528.026,292.709,529.904,288.278,529.904z M58.671,247.59c-5.95,0-11.138,3.381-13.54,8.824
				c-2.402,5.443-1.404,11.555,2.606,15.95l229.607,251.714c2.797,3.067,6.783,4.826,10.934,4.826c4.151,0,8.136-1.759,10.934-4.826
				L528.82,272.364c4.009-4.396,5.007-10.508,2.604-15.951c-2.402-5.442-7.59-8.823-13.539-8.823h-79.924
				c-8.712,0-15.8-7.088-15.8-15.8V62.452c0-8.161-6.639-14.8-14.8-14.8H169.195c-8.161,0-14.8,6.639-14.8,14.8V231.79
				c0,8.712-7.088,15.8-15.8,15.8H58.671z"/>
		</g>
	</g>
</g>
</svg>